<svg width="68" height="43" viewBox="0 0 68 43" fill="none" xmlns="http://www.w3.org/2000/svg">
<g filter="url(#filter0_d_604_2)">
<path d="M11.55 27.704C11.55 28.348 11.448 28.934 11.244 29.462C11.04 29.99 10.752 30.442 10.38 30.818C10.008 31.194 9.56 31.486 9.036 31.694C8.516 31.898 7.94 32 7.308 32H4.098V23.402H7.308C7.94 23.402 8.516 23.506 9.036 23.714C9.56 23.918 10.008 24.21 10.38 24.59C10.752 24.966 11.04 25.418 11.244 25.946C11.448 26.474 11.55 27.06 11.55 27.704ZM10.356 27.704C10.356 27.176 10.284 26.704 10.14 26.288C9.996 25.872 9.792 25.52 9.528 25.232C9.264 24.944 8.944 24.724 8.568 24.572C8.192 24.42 7.772 24.344 7.308 24.344H5.262V31.058H7.308C7.772 31.058 8.192 30.982 8.568 30.83C8.944 30.678 9.264 30.46 9.528 30.176C9.792 29.888 9.996 29.536 10.14 29.12C10.284 28.704 10.356 28.232 10.356 27.704ZM13.9857 25.922V32H12.9177V25.922H13.9857ZM14.2137 24.014C14.2137 24.118 14.1917 24.216 14.1477 24.308C14.1077 24.396 14.0517 24.476 13.9797 24.548C13.9117 24.616 13.8297 24.67 13.7337 24.71C13.6417 24.75 13.5437 24.77 13.4397 24.77C13.3357 24.77 13.2377 24.75 13.1457 24.71C13.0577 24.67 12.9797 24.616 12.9117 24.548C12.8437 24.476 12.7897 24.396 12.7497 24.308C12.7097 24.216 12.6897 24.118 12.6897 24.014C12.6897 23.91 12.7097 23.812 12.7497 23.72C12.7897 23.624 12.8437 23.542 12.9117 23.474C12.9797 23.402 13.0577 23.346 13.1457 23.306C13.2377 23.266 13.3357 23.246 13.4397 23.246C13.5437 23.246 13.6417 23.266 13.7337 23.306C13.8297 23.346 13.9117 23.402 13.9797 23.474C14.0517 23.542 14.1077 23.624 14.1477 23.72C14.1917 23.812 14.2137 23.91 14.2137 24.014ZM19.0345 29.264C18.5425 29.28 18.1225 29.32 17.7745 29.384C17.4305 29.444 17.1485 29.524 16.9285 29.624C16.7125 29.724 16.5545 29.842 16.4545 29.978C16.3585 30.114 16.3105 30.266 16.3105 30.434C16.3105 30.594 16.3365 30.732 16.3885 30.848C16.4405 30.964 16.5105 31.06 16.5985 31.136C16.6905 31.208 16.7965 31.262 16.9165 31.298C17.0405 31.33 17.1725 31.346 17.3125 31.346C17.5005 31.346 17.6725 31.328 17.8285 31.292C17.9845 31.252 18.1305 31.196 18.2665 31.124C18.4065 31.052 18.5385 30.966 18.6625 30.866C18.7905 30.766 18.9145 30.652 19.0345 30.524V29.264ZM15.5845 26.78C15.9205 26.456 16.2825 26.214 16.6705 26.054C17.0585 25.894 17.4885 25.814 17.9605 25.814C18.3005 25.814 18.6025 25.87 18.8665 25.982C19.1305 26.094 19.3525 26.25 19.5325 26.45C19.7125 26.65 19.8485 26.892 19.9405 27.176C20.0325 27.46 20.0785 27.772 20.0785 28.112V32H19.6045C19.5005 32 19.4205 31.984 19.3645 31.952C19.3085 31.916 19.2645 31.848 19.2325 31.748L19.1125 31.172C18.9525 31.32 18.7965 31.452 18.6445 31.568C18.4925 31.68 18.3325 31.776 18.1645 31.856C17.9965 31.932 17.8165 31.99 17.6245 32.03C17.4365 32.074 17.2265 32.096 16.9945 32.096C16.7585 32.096 16.5365 32.064 16.3285 32C16.1205 31.932 15.9385 31.832 15.7825 31.7C15.6305 31.568 15.5085 31.402 15.4165 31.202C15.3285 30.998 15.2845 30.758 15.2845 30.482C15.2845 30.242 15.3505 30.012 15.4825 29.792C15.6145 29.568 15.8285 29.37 16.1245 29.198C16.4205 29.026 16.8065 28.886 17.2825 28.778C17.7585 28.666 18.3425 28.602 19.0345 28.586V28.112C19.0345 27.64 18.9325 27.284 18.7285 27.044C18.5245 26.8 18.2265 26.678 17.8345 26.678C17.5705 26.678 17.3485 26.712 17.1685 26.78C16.9925 26.844 16.8385 26.918 16.7065 27.002C16.5785 27.082 16.4665 27.156 16.3705 27.224C16.2785 27.288 16.1865 27.32 16.0945 27.32C16.0225 27.32 15.9605 27.302 15.9085 27.266C15.8565 27.226 15.8125 27.178 15.7765 27.122L15.5845 26.78ZM22.7194 27.14C22.9114 26.724 23.1474 26.4 23.4274 26.168C23.7074 25.932 24.0494 25.814 24.4534 25.814C24.5814 25.814 24.7034 25.828 24.8194 25.856C24.9394 25.884 25.0454 25.928 25.1374 25.988L25.0594 26.786C25.0354 26.886 24.9754 26.936 24.8794 26.936C24.8234 26.936 24.7414 26.924 24.6334 26.9C24.5254 26.876 24.4034 26.864 24.2674 26.864C24.0754 26.864 23.9034 26.892 23.7514 26.948C23.6034 27.004 23.4694 27.088 23.3494 27.2C23.2334 27.308 23.1274 27.444 23.0314 27.608C22.9394 27.768 22.8554 27.952 22.7794 28.16V32H21.7054V25.922H22.3174C22.4334 25.922 22.5134 25.944 22.5574 25.988C22.6014 26.032 22.6314 26.108 22.6474 26.216L22.7194 27.14ZM31.3205 25.922L27.9305 33.794C27.8945 33.874 27.8485 33.938 27.7925 33.986C27.7405 34.034 27.6585 34.058 27.5465 34.058H26.7545L27.8645 31.646L25.3565 25.922H26.2805C26.3725 25.922 26.4445 25.946 26.4965 25.994C26.5525 26.038 26.5905 26.088 26.6105 26.144L28.2365 29.972C28.3005 30.14 28.3545 30.316 28.3985 30.5C28.4545 30.312 28.5145 30.134 28.5785 29.966L30.1565 26.144C30.1805 26.08 30.2205 26.028 30.2765 25.988C30.3365 25.944 30.4025 25.922 30.4745 25.922H31.3205ZM33.278 27.14C33.47 26.724 33.706 26.4 33.986 26.168C34.266 25.932 34.608 25.814 35.012 25.814C35.14 25.814 35.262 25.828 35.378 25.856C35.498 25.884 35.604 25.928 35.696 25.988L35.618 26.786C35.594 26.886 35.534 26.936 35.438 26.936C35.382 26.936 35.3 26.924 35.192 26.9C35.084 26.876 34.962 26.864 34.826 26.864C34.634 26.864 34.462 26.892 34.31 26.948C34.162 27.004 34.028 27.088 33.908 27.2C33.792 27.308 33.686 27.444 33.59 27.608C33.498 27.768 33.414 27.952 33.338 28.16V32H32.264V25.922H32.876C32.992 25.922 33.072 25.944 33.116 25.988C33.16 26.032 33.19 26.108 33.206 26.216L33.278 27.14ZM38.951 25.826C39.395 25.826 39.795 25.9 40.151 26.048C40.507 26.196 40.811 26.406 41.063 26.678C41.315 26.95 41.507 27.28 41.639 27.668C41.775 28.052 41.843 28.482 41.843 28.958C41.843 29.438 41.775 29.87 41.639 30.254C41.507 30.638 41.315 30.966 41.063 31.238C40.811 31.51 40.507 31.72 40.151 31.868C39.795 32.012 39.395 32.084 38.951 32.084C38.503 32.084 38.099 32.012 37.739 31.868C37.383 31.72 37.079 31.51 36.827 31.238C36.575 30.966 36.381 30.638 36.245 30.254C36.113 29.87 36.047 29.438 36.047 28.958C36.047 28.482 36.113 28.052 36.245 27.668C36.381 27.28 36.575 26.95 36.827 26.678C37.079 26.406 37.383 26.196 37.739 26.048C38.099 25.9 38.503 25.826 38.951 25.826ZM38.951 31.25C39.551 31.25 39.999 31.05 40.295 30.65C40.591 30.246 40.739 29.684 40.739 28.964C40.739 28.24 40.591 27.676 40.295 27.272C39.999 26.868 39.551 26.666 38.951 26.666C38.647 26.666 38.381 26.718 38.153 26.822C37.929 26.926 37.741 27.076 37.589 27.272C37.441 27.468 37.329 27.71 37.253 27.998C37.181 28.282 37.145 28.604 37.145 28.964C37.145 29.684 37.293 30.246 37.589 30.65C37.889 31.05 38.343 31.25 38.951 31.25ZM45.7596 25.826C46.2036 25.826 46.6036 25.9 46.9596 26.048C47.3156 26.196 47.6196 26.406 47.8716 26.678C48.1236 26.95 48.3156 27.28 48.4476 27.668C48.5836 28.052 48.6516 28.482 48.6516 28.958C48.6516 29.438 48.5836 29.87 48.4476 30.254C48.3156 30.638 48.1236 30.966 47.8716 31.238C47.6196 31.51 47.3156 31.72 46.9596 31.868C46.6036 32.012 46.2036 32.084 45.7596 32.084C45.3116 32.084 44.9076 32.012 44.5476 31.868C44.1916 31.72 43.8876 31.51 43.6356 31.238C43.3836 30.966 43.1896 30.638 43.0536 30.254C42.9216 29.87 42.8556 29.438 42.8556 28.958C42.8556 28.482 42.9216 28.052 43.0536 27.668C43.1896 27.28 43.3836 26.95 43.6356 26.678C43.8876 26.406 44.1916 26.196 44.5476 26.048C44.9076 25.9 45.3116 25.826 45.7596 25.826ZM45.7596 31.25C46.3596 31.25 46.8076 31.05 47.1036 30.65C47.3996 30.246 47.5476 29.684 47.5476 28.964C47.5476 28.24 47.3996 27.676 47.1036 27.272C46.8076 26.868 46.3596 26.666 45.7596 26.666C45.4556 26.666 45.1896 26.718 44.9616 26.822C44.7376 26.926 44.5496 27.076 44.3976 27.272C44.2496 27.468 44.1376 27.71 44.0616 27.998C43.9896 28.282 43.9536 28.604 43.9536 28.964C43.9536 29.684 44.1016 30.246 44.3976 30.65C44.6976 31.05 45.1516 31.25 45.7596 31.25ZM50.0062 32V25.922H50.6482C50.8002 25.922 50.8942 25.996 50.9302 26.144L51.0082 26.768C51.2322 26.492 51.4842 26.266 51.7642 26.09C52.0442 25.914 52.3682 25.826 52.7362 25.826C53.1442 25.826 53.4742 25.94 53.7262 26.168C53.9822 26.396 54.1662 26.704 54.2782 27.092C54.3662 26.872 54.4782 26.682 54.6142 26.522C54.7542 26.362 54.9102 26.23 55.0822 26.126C55.2542 26.022 55.4362 25.946 55.6282 25.898C55.8242 25.85 56.0222 25.826 56.2222 25.826C56.5422 25.826 56.8262 25.878 57.0742 25.982C57.3262 26.082 57.5382 26.23 57.7102 26.426C57.8862 26.622 58.0202 26.864 58.1122 27.152C58.2042 27.436 58.2502 27.762 58.2502 28.13V32H57.1762V28.13C57.1762 27.654 57.0722 27.294 56.8642 27.05C56.6562 26.802 56.3562 26.678 55.9642 26.678C55.7882 26.678 55.6202 26.71 55.4602 26.774C55.3042 26.834 55.1662 26.924 55.0462 27.044C54.9262 27.164 54.8302 27.316 54.7582 27.5C54.6902 27.68 54.6562 27.89 54.6562 28.13V32H53.5822V28.13C53.5822 27.642 53.4842 27.278 53.2882 27.038C53.0922 26.798 52.8062 26.678 52.4302 26.678C52.1662 26.678 51.9222 26.75 51.6982 26.894C51.4742 27.034 51.2682 27.226 51.0802 27.47V32H50.0062ZM63.4133 26.924C63.3653 27.012 63.2913 27.056 63.1913 27.056C63.1313 27.056 63.0633 27.034 62.9873 26.99C62.9113 26.946 62.8173 26.898 62.7053 26.846C62.5973 26.79 62.4673 26.74 62.3153 26.696C62.1633 26.648 61.9833 26.624 61.7753 26.624C61.5953 26.624 61.4333 26.648 61.2893 26.696C61.1453 26.74 61.0213 26.802 60.9173 26.882C60.8173 26.962 60.7393 27.056 60.6833 27.164C60.6313 27.268 60.6053 27.382 60.6053 27.506C60.6053 27.662 60.6493 27.792 60.7373 27.896C60.8293 28 60.9493 28.09 61.0973 28.166C61.2453 28.242 61.4133 28.31 61.6013 28.37C61.7893 28.426 61.9813 28.488 62.1773 28.556C62.3773 28.62 62.5713 28.692 62.7593 28.772C62.9473 28.852 63.1153 28.952 63.2633 29.072C63.4113 29.192 63.5293 29.34 63.6173 29.516C63.7093 29.688 63.7553 29.896 63.7553 30.14C63.7553 30.42 63.7053 30.68 63.6053 30.92C63.5053 31.156 63.3573 31.362 63.1613 31.538C62.9653 31.71 62.7253 31.846 62.4413 31.946C62.1573 32.046 61.8293 32.096 61.4573 32.096C61.0333 32.096 60.6493 32.028 60.3053 31.892C59.9613 31.752 59.6693 31.574 59.4293 31.358L59.6813 30.95C59.7133 30.898 59.7513 30.858 59.7953 30.83C59.8393 30.802 59.8953 30.788 59.9633 30.788C60.0353 30.788 60.1113 30.816 60.1913 30.872C60.2713 30.928 60.3673 30.99 60.4793 31.058C60.5953 31.126 60.7353 31.188 60.8993 31.244C61.0633 31.3 61.2673 31.328 61.5113 31.328C61.7193 31.328 61.9013 31.302 62.0573 31.25C62.2133 31.194 62.3433 31.12 62.4473 31.028C62.5513 30.936 62.6273 30.83 62.6753 30.71C62.7273 30.59 62.7533 30.462 62.7533 30.326C62.7533 30.158 62.7073 30.02 62.6153 29.912C62.5273 29.8 62.4093 29.706 62.2613 29.63C62.1133 29.55 61.9433 29.482 61.7513 29.426C61.5633 29.366 61.3693 29.304 61.1693 29.24C60.9733 29.176 60.7793 29.104 60.5873 29.024C60.3993 28.94 60.2313 28.836 60.0833 28.712C59.9353 28.588 59.8153 28.436 59.7233 28.256C59.6353 28.072 59.5913 27.85 59.5913 27.59C59.5913 27.358 59.6393 27.136 59.7353 26.924C59.8313 26.708 59.9713 26.52 60.1553 26.36C60.3393 26.196 60.5653 26.066 60.8333 25.97C61.1013 25.874 61.4073 25.826 61.7513 25.826C62.1513 25.826 62.5093 25.89 62.8253 26.018C63.1453 26.142 63.4213 26.314 63.6533 26.534L63.4133 26.924Z" fill="white"/>
<path d="M29.8 11.2V5H26C24.9 5 24 5.9 24 7V13C24 14.1 24.9 15 26 15H27V18L30 15H35C36.1 15 37 14.1 37 13V11.18C36.9343 11.1941 36.8672 11.2011 36.8 11.201H29.8V11.2ZM42 0H33C31.9 0 31 0.9 31 2V10H38L41 13V10H42C43.1 10 44 9.101 44 8V2C44 0.9 43.1 0 42 0Z" fill="#E91E63"/>
</g>
<defs>
<filter id="filter0_d_604_2" x="0.0979996" y="0" width="67.6573" height="42.0581" filterUnits="userSpaceOnUse" color-interpolation-filters="sRGB">
<feFlood flood-opacity="0" result="BackgroundImageFix"/>
<feColorMatrix in="SourceAlpha" type="matrix" values="0 0 0 0 0 0 0 0 0 0 0 0 0 0 0 0 0 0 127 0" result="hardAlpha"/>
<feOffset dy="4"/>
<feGaussianBlur stdDeviation="2"/>
<feComposite in2="hardAlpha" operator="out"/>
<feColorMatrix type="matrix" values="0 0 0 0 0 0 0 0 0 0 0 0 0 0 0 0 0 0 0.25 0"/>
<feBlend mode="normal" in2="BackgroundImageFix" result="effect1_dropShadow_604_2"/>
<feBlend mode="normal" in="SourceGraphic" in2="effect1_dropShadow_604_2" result="shape"/>
</filter>
</defs>
</svg>
