<?xml version="1.0" encoding="utf-8"?>
<svg version="1.1" id="Layer_1" x="0px" y="0px" viewBox="275.773 -136.021 63.449 59.69" style="enable-background:new 0 0 512 512;" xmlns="http://www.w3.org/2000/svg">
  <g transform="matrix(0.076404, 0, 0, 0.095778, 289.787079, -136.030609)" style="">
    <circle style="" cx="256" cy="256" r="256"/>
  </g>
  <path style="fill: rgb(233, 30, 99);" d="M 323.842 -121.342 C 323.842 -117.525 322.915 -115.621 321.7 -114.039 C 321.023 -112.936 320.201 -111.93 319.248 -111.049 C 317.674 -108.865 316.267 -105.693 316.201 -98.707 C 316.201 -98.37 315.917 -98.098 315.582 -98.098 L 303.187 -98.098 C 302.844 -98.098 302.569 -98.37 302.569 -98.707 C 302.493 -105.7 301.096 -108.874 299.52 -111.049 C 298.578 -111.93 297.744 -112.936 297.069 -114.039 C 295.862 -115.621 294.928 -117.516 294.928 -121.342 C 294.928 -140.28 323.842 -140.28 323.842 -121.342 Z"/>
  <path style="fill: rgb(228, 231, 237);" d="M 303.888 -98.754 L 315.405 -98.754 L 315.405 -93.522 C 315.405 -93.206 315.108 -92.959 314.752 -92.959 L 304.544 -92.959 C 304.177 -92.959 303.888 -93.213 303.888 -93.522 L 303.888 -98.754 Z"/>
  <path style="fill: rgb(13, 169, 24);" d="M 303.384 -98.164 L 315.384 -98.164 C 315.786 -98.164 316.105 -97.664 316.105 -97.078 L 316.105 -97.078 C 316.105 -96.469 315.776 -95.991 315.384 -95.991 L 303.384 -95.991 C 302.982 -95.991 302.666 -96.486 302.666 -97.078 L 302.666 -97.078 C 302.666 -97.678 302.996 -98.164 303.384 -98.164 Z"/>
  <path style="fill: rgb(216, 9, 75);" d="M 304.148 -93.418 L 314.884 -93.418 L 314.341 -92.516 C 313.989 -91.925 313.332 -91.579 312.581 -91.579 L 306.452 -91.579 C 305.696 -91.579 305.043 -91.925 304.688 -92.516 L 304.148 -93.418 Z"/>
  <path style="fill: rgb(171, 34, 251);" d="M 304.053 -95.47 L 315.173 -95.47 C 315.547 -95.47 315.842 -95.154 315.842 -94.779 L 315.842 -94.779 C 315.842 -94.394 315.537 -94.084 315.173 -94.084 L 304.053 -94.084 C 303.681 -94.084 303.387 -94.401 303.387 -94.779 L 303.387 -94.779 C 303.387 -95.162 303.693 -95.47 304.053 -95.47 Z"/>
  <path style="fill: rgb(253, 253, 93);" d="M 320.389 -128.384 C 302.063 -130.246 307.017 -108.576 315.585 -115.33 C 319.516 -118.43 318.192 -126.364 320.389 -128.384 Z"/>
  <path style="fill: rgb(255, 255, 255);" d="M 317.399 -126.346 C 307.967 -124.656 309.897 -107.671 310.073 -100.354 L 309.134 -100.343 C 308.958 -107.609 307.557 -125.309 317.399 -126.346 Z"/>
  <path style="fill: rgb(61, 58, 225);" d="M 295.574 -122.098 C 312.586 -125.371 308.904 -105.305 301.299 -110.84 C 297.551 -113.576 297.819 -120.578 295.574 -122.098 Z"/>
  <path style="fill: rgb(255, 255, 255);" d="M 309.512 -107.885 L 308.985 -107.858 C 307.035 -119.09 297.696 -119.969 297.664 -119.981 C 304.382 -119.102 309.004 -114.969 309.512 -107.885 Z"/>
  <path style="fill: rgb(233, 30, 99);" d="M 319.991 -114.347 C 317.7 -110.985 315.24 -108.122 315.102 -98.105 L 315.583 -98.105 C 315.888 -98.105 316.132 -98.376 316.132 -98.712 C 316.2 -105.669 317.442 -108.829 318.841 -110.993 C 319.68 -111.869 320.42 -112.87 321.021 -113.968 C 325.789 -120.933 322.269 -132.076 314.365 -134.603 C 321.532 -131.596 324.485 -120.941 319.984 -114.347 L 319.991 -114.347 Z"/>
  <path style="fill: rgb(255, 112, 105);" d="M 305.038 -100.541 C 305.353 -100.541 305.644 -100.449 305.88 -100.292 C 306.274 -100.903 306.962 -101.311 307.753 -101.311 C 308.359 -101.311 308.904 -101.07 309.303 -100.684 C 309.528 -100.814 309.787 -100.881 310.07 -100.881 C 310.296 -100.881 310.509 -100.836 310.701 -100.745 C 311.091 -101.094 311.612 -101.304 312.18 -101.304 C 312.972 -101.304 313.661 -100.896 314.053 -100.284 C 314.297 -100.441 314.588 -100.534 314.898 -100.534 C 315.381 -100.534 315.817 -100.314 316.101 -99.966 C 316.087 -99.543 316.072 -99.096 316.072 -98.635 C 316.072 -98.333 315.817 -98.091 315.519 -98.091 L 304.417 -98.091 C 304.109 -98.091 303.864 -98.333 303.864 -98.635 C 303.857 -99.096 303.85 -99.543 303.834 -99.966 C 304.117 -100.314 304.553 -100.534 305.038 -100.534 L 305.038 -100.541 Z"/>
  <path style="fill: rgb(254, 254, 254);" d="M 316.183 -100.772 C 316.165 -100.191 316.157 -99.569 316.148 -98.938 C 316.148 -98.474 315.863 -98.098 315.525 -98.098 L 302.997 -98.098 C 302.651 -98.098 302.375 -98.474 302.375 -98.938 C 302.364 -99.569 302.356 -100.18 302.341 -100.772 C 302.651 -101.123 303.057 -101.331 303.489 -101.331 C 303.855 -101.331 304.2 -101.18 304.478 -100.936 C 304.936 -101.918 305.741 -102.568 306.67 -102.568 C 307.377 -102.568 308.016 -102.185 308.486 -101.564 C 308.747 -101.765 309.057 -101.883 309.379 -101.883 C 309.638 -101.883 309.889 -101.801 310.114 -101.671 C 310.572 -102.231 311.179 -102.568 311.846 -102.568 C 312.771 -102.568 313.577 -101.918 314.036 -100.936 C 314.323 -101.194 314.659 -101.331 315.021 -101.331 C 315.466 -101.331 315.863 -101.123 316.175 -100.772 L 316.183 -100.772 Z"/>
  <text style="fill: rgb(255, 255, 255); font-family: Arial, sans-serif; font-size: 55.5px; white-space: pre;" transform="matrix(0.265806, 0, 0, 0.293568, 224.871262, -251.547913)" x="197.518" y="579.32">Featured</text>
  <g transform="matrix(0.180736, 0, 0, 0.164725, 260.155029, -116.228043)" style=""/>
  <g transform="matrix(0.180736, 0, 0, 0.164725, 260.155029, -116.228043)" style=""/>
  <g transform="matrix(0.180736, 0, 0, 0.164725, 260.155029, -116.228043)" style=""/>
  <g transform="matrix(0.180736, 0, 0, 0.164725, 260.155029, -116.228043)" style=""/>
  <g transform="matrix(0.180736, 0, 0, 0.164725, 260.155029, -116.228043)" style=""/>
  <g transform="matrix(0.180736, 0, 0, 0.164725, 260.155029, -116.228043)" style=""/>
  <g transform="matrix(0.180736, 0, 0, 0.164725, 260.155029, -116.228043)" style=""/>
  <g transform="matrix(0.180736, 0, 0, 0.164725, 260.155029, -116.228043)" style=""/>
  <g transform="matrix(0.180736, 0, 0, 0.164725, 260.155029, -116.228043)" style=""/>
  <g transform="matrix(0.180736, 0, 0, 0.164725, 260.155029, -116.228043)" style=""/>
  <g transform="matrix(0.180736, 0, 0, 0.164725, 260.155029, -116.228043)" style=""/>
  <g transform="matrix(0.180736, 0, 0, 0.164725, 260.155029, -116.228043)" style=""/>
  <g transform="matrix(0.180736, 0, 0, 0.164725, 260.155029, -116.228043)" style=""/>
  <g transform="matrix(0.180736, 0, 0, 0.164725, 260.155029, -116.228043)" style=""/>
  <g transform="matrix(0.180736, 0, 0, 0.164725, 260.155029, -116.228043)" style=""/>
</svg>